<?xml version="1.0" encoding="UTF-8"?>
<svg width="512px" height="512px" viewBox="0 0 512 512" version="1.1" xmlns="http://www.w3.org/2000/svg" xmlns:xlink="http://www.w3.org/1999/xlink">
    <!-- Generator: Sketch 48.2 (47327) - http://www.bohemiancoding.com/sketch -->
    <title>Overlay</title>
    <desc>Created with Sketch.</desc>
    <defs>
        <polygon id="path-1" points="37.2086495 77.7588009 23.8349218 162.394539 7.3993866 179.442081 19.4319377 192.085755 0.847220611 309.891922 33.7582552 344.068955 57.8018048 318.272855 74.7143507 211.974559 124.365757 280.906978 97.8767344 446.978167 167.438025 376.160624 200.458631 166.492588 226.662448 162.394539 272.895976 113.72366 257.903767 98.6899685 208.205896 107.480371 213.898798 80.9061258 281.119876 70.3892933 349.646696 0.471328933 181.54713 27.8334632 86.2256891 128.131634 106.990537 7.69520498"></polygon>
        <radialGradient cx="50%" cy="50%" fx="50%" fy="50%" r="55.0758095%" id="radialGradient-3">
            <stop stop-color="#FFFFFF" offset="0%"></stop>
            <stop stop-color="#000000" offset="100%"></stop>
        </radialGradient>
    </defs>
    <g id="Page-1" stroke="none" stroke-width="1" fill="none" fill-rule="evenodd">
        <g id="Overlay">
            <g id="safari-pinned-tab" transform="translate(104.000000, 43.000000)">
                <g id="Rectangle">
                    <g id="portugal">
                        <mask id="mask-2" fill="white">
                            <use xlink:href="#path-1"></use>
                        </mask>
                        <use id="Mask" fill="#FFFFFF" xlink:href="#path-1"></use>
                        <g id="portugal-+-783598a7e5187765f1aa21e567283208-Mask" mask="url(#mask-2)">
                            <g transform="translate(-97.000000, -53.000000)">
                                <g id="portugal" stroke-width="1" fill="none" transform="translate(33.000000, 0.000000)">
                                    <path d="M0,251.500497 C0,360.847705 69.3923273,454.066523 166.763531,490 L189,251.499503 L166.763531,13 C69.3923273,48.9344709 0,142.152295 0,251.500497 Z" id="Shape" fill="#6DA544" fill-rule="nonzero"></path>
                                    <path d="M510,255 C510,114.168281 395.731125,0 254.775319,0 C223.556156,0 193.650005,5.61099609 166,15.8608008 L166,494.139199 C193.650005,504.39 223.556156,510 254.775319,510 C395.731125,510 510,395.831719 510,255 Z" id="Shape" fill="#D80027" fill-rule="nonzero"></path>
                                    <circle id="Oval" fill="#FFDA44" fill-rule="nonzero" cx="164" cy="216" r="50"></circle>
                                </g>
                                <rect id="Rectangle-2" fill="url(#radialGradient-3)" opacity="0.0981091486" style="mix-blend-mode: saturation;" x="0" y="10" width="512" height="512"></rect>
                            </g>
                        </g>
                    </g>
                </g>
                <g id="Group" transform="translate(176.000000, 224.000000) scale(-1, 1) rotate(-180.000000) translate(-176.000000, -224.000000) translate(1.000000, 0.000000)" fill="#000000" fill-rule="nonzero">
                    <path d="M313.000399,441.95 C293.050371,438.7 255.050319,432.5 228.500282,428.25 L180.250215,420.45 L177.500211,417.6 C175.950209,416.05 163.500192,403.05 149.750172,388.75 C136.050153,374.45 119.50013,357.25 113.050122,350.5 C94.7500961,331.5 94.1500953,330.85 95.2500968,331.15 C95.8000976,331.3 96.8500991,331.6 97.6501002,331.8 C98.4001012,331.95 99.000102,332.3 99.000102,332.55 C99.000102,332.8 99.2501024,333 99.5001027,333 C100.400104,333 105.150111,336.75 107.650114,339.4 C108.950116,340.8 110.000117,341.85 110.000117,341.7 C110.000117,341.35 80.8500768,311 80.6500766,311.15 C80.5500764,311.3 82.2000787,322 85.2500829,341 C86.000084,345.55 86.8000851,350.7 87.1000855,352.5 C87.8500866,357.55 90.8500907,376.4 93.5000944,393 C94.0500952,396.45 94.5000958,399.6 94.5000958,400 C94.5000958,400.65 94.5500959,400.65 95.0000965,400 C95.3000969,399.6 95.350097,398.15 95.2000968,396.75 C95.0000965,395.4 94.8500963,393.7 94.9000963,393 C94.9000963,392.3 94.7000961,390.75 94.5000958,389.5 C94.2500954,388.25 93.900095,386.1 93.7500947,384.75 C93.5500945,383.35 93.200094,380.9 92.9500936,379.25 C92.2000926,375 92.1500925,374.5 91.800092,372 C91.6000918,370.75 91.1500911,367.95 90.7500906,365.75 C90.35009,363.55 89.9500895,361 89.9000894,360.15 C89.8500893,359.25 89.6500891,358.5 89.5000888,358.5 C89.3000886,358.5 89.1500884,358.2 89.1500884,357.9 C89.1500884,357.55 88.8500879,355.35 88.5500875,353 C87.6000862,345.45 87.450086,343.85 87.450086,340.55 C87.450086,338.7 87.6500863,336.65 87.9500867,335.95 C88.200087,335.2 88.3000872,334.45 88.1000869,334.25 C87.9000866,334.05 88.1000869,333.95 88.5000875,334.1 C88.900088,334.25 89.3000886,334.9 89.3500886,335.55 C89.5000888,336.6 105.650111,438.05 106.150112,440.9 C106.300112,441.7 99.9001033,435.5 87.5500861,422.9 C77.2000718,412.4 67.1500578,402.1 65.2500552,400.1 L61.7500503,396.4 L55.2000412,354.85 C51.6000362,331.95 48.550032,312.9 48.4500319,312.45 C48.3500317,312 44.7500267,308 40.5000208,303.55 C36.2500149,299.05 32.70001,295.15 32.6000099,294.85 C32.5500098,294.5 34.9500131,291.8 38.0000174,288.75 C42.100023,284.65 43.500025,282.95 43.500025,282 C43.500025,281.3 41.7000225,269.3 39.5000194,255.3 C37.3000164,241.3 35.600014,229.75 35.7000142,229.6 C35.9000144,229.4 36.8500158,232.4 37.3000164,234.7 C37.4000165,235.25 38.0500174,237.6 38.7000183,239.95 C39.90002,244.2 40.4500208,246.55 40.7500212,248.65 C41.0000215,250.75 41.5000222,253.8 41.8000226,255 C41.9500228,255.7 42.3500234,257.85 42.6000237,259.75 C42.9000242,261.7 43.4000248,263.85 43.7500253,264.55 C45.3000275,267.45 46.1500287,274.05 45.8000282,280 C45.650028,283.15 45.4000276,286.3 45.2500274,287 C45.1000272,287.7 44.9000269,288.75 44.8000268,289.4 C44.4500263,291 45.0000271,290.8 47.4000304,288.35 L49.5500334,286.15 L47.5500306,273.45 C45.700028,261.9 40.5500209,228.7 39.5000194,222 C37.6000168,209.8 36.1500148,200.55 34.0000118,187 C32.6500099,178.35 31.5000083,170.45 31.5000083,169.5 C31.5500084,167.95 32.2500094,167 37.4500166,161.5 C40.7500212,158.05 43.3500248,155.2 43.2500246,155.1 C43.0500244,154.85 39.0000187,156.95 37.4000165,158.15 C35.1000133,159.85 32.2000093,164.55 30.8000074,168.85 C29.3500053,173.5 29.0000049,175.55 28.9000047,180.85 C28.8500047,184.45 28.4500041,185.3 28.1500037,182.6 C28.0500035,181.85 27.4500027,178 26.7500017,174 C26.0500008,170 25.5,166.25 25.5,165.65 C25.5,164.9 28.5500042,161.45 35.3000136,154.55 C40.7000211,149.05 45.9000283,143.55 46.9000297,142.4 C48.9000325,140 57.1000439,131.95 57.3500442,132.15 C57.4500444,132.3 64.3000539,175.95 64.4500541,177.5 C64.5000541,177.9 64.6000543,178.95 64.7500545,179.75 C65.0000548,181.1 79.0500743,269.25 79.7000752,273.4 C79.9000755,274.8 79.8500755,274.95 79.0500743,274.55 C78.100073,274 75.6000696,269.6 74.9500686,267.25 C74.2500677,264.65 73.050066,261.7 73.0000659,262.6 C73.0000659,264 74.5500681,273.6 75.0500688,275.25 C75.3000691,276.1 78.100073,279.3 81.650078,282.85 L87.7500864,288.95 L92.8500935,281.85 C95.6500974,277.95 98.6501016,273.75 99.5501028,272.5 C101.150105,270.3 101.100105,270.3 98.2001009,273.2 C94.4000957,277 92.2500927,278.4 89.4000887,278.95 C87.2000857,279.35 87.0500854,279.3 87.5500861,278.45 C88.0500868,277.5 98.250101,263.2 99.8001031,261.25 C100.250104,260.7 101.200105,259.35 101.900106,258.25 C102.650107,257.15 103.350108,256.15 103.500108,256 C103.700109,255.85 104.60011,254.65 105.550111,253.25 C106.450112,251.9 107.350114,250.65 107.550114,250.5 C107.700114,250.35 108.600115,249.15 109.550117,247.75 C110.450118,246.4 111.350119,245.15 111.550119,245 C111.70012,244.85 112.600121,243.65 113.550122,242.25 C114.450123,240.9 115.400125,239.65 115.550125,239.5 C115.700125,239.35 116.800127,237.9 117.950128,236.25 C119.10013,234.6 120.950133,232 122.050134,230.5 C124.150137,227.6 127.750142,222.6 129.000144,220.8 C129.400144,220.25 133.950151,213.95 139.150158,206.8 L148.550171,193.9 L135.500153,111.3 C128.350143,65.9 122.400135,28.35 122.300134,27.9 C122.000134,26.65 128.950144,33.05 134.800152,39.4 C137.500155,42.35 145.700167,50.85 153.050177,58.25 L166.400196,71.75 L168.450198,84.75 C180.500215,162 203.100247,303.8 203.400247,304.1 C203.600247,304.3 214.350262,306.15 227.25028,308.25 L250.750313,312.05 L261.550328,323.15 L272.350343,334.25 L264.900332,342.05 C259.950325,347.2 257.150322,349.8 256.600321,349.7 C256.10032,349.6 248.000309,348.25 238.500296,346.75 C218.400268,343.55 218.850268,343.65 219.300269,342.9 C219.75027,342.2 228.600282,342.9 233.000288,344 C235.700292,344.65 244.900305,344.6 248.000309,343.95 C249.500311,343.6 250.300312,343.25 249.750311,343.15 C249.200311,343.05 246.850307,342.65 244.500304,342.25 C232.250287,340.1 203.350247,335.5 203.150247,335.7 C202.900246,335.95 203.450247,340.05 205.25025,351 C205.950251,355.25 206.700252,360.1 206.950252,361.75 C207.200252,363.4 208.100253,369.15 208.950255,374.5 C209.800256,379.85 210.750257,386.05 211.050258,388.25 C211.850259,394.05 212.000259,394.3 214.850263,394.65 C216.150265,394.85 222.200273,395.75 228.250281,396.75 C234.30029,397.7 242.050301,398.95 245.500305,399.5 C248.95031,400.05 255.250319,401.05 259.500325,401.75 C276.650349,404.55 289.850367,406.6 291.75037,406.85 C293.450372,407.05 293.600372,406.95 292.800371,406.45 C291.200369,405.45 283.050358,403.45 277.75035,402.75 C276.650349,402.6 274.200345,402.05 272.250343,401.55 C270.35034,401.05 266.750335,400.25 264.250331,399.75 C258.950324,398.8 254.500318,397.9 248.000309,396.5 C243.850303,395.6 240.800299,395.05 235.350291,394.2 C233.250288,393.9 228.450282,392.6 228.100281,392.3 C227.950281,392.15 227.950281,391.9 228.050281,391.75 C228.200281,391.65 238.100295,393.1 250.050312,395 C262.000328,396.95 279.450353,399.75 288.850366,401.25 L305.950389,404 L318.600407,416.85 C325.550417,423.9 335.40043,433.8 340.450437,438.85 C345.450444,443.9 349.50045,447.95 349.450908,447.95 C349.35045,447.9 332.950427,445.2 313.000399,441.95 Z M322.9,429.65 C318.6,425.3 312.75,419.35 309.9,416.4 L304.75,411 L296.5,409.55 C291.95,408.7 284.65,407.5 280.25,406.8 C275.85,406.05 264.05,404.15 254,402.5 C243.95,400.9 230.8,398.75 224.75,397.8 C218.7,396.8 213,395.9 212.15,395.75 C211.25,395.6 210.5,395.2 210.5,394.9 C210.5,394.6 209.7,389.3 208.7,383.05 C207.75,376.85 206.75,370.5 206.5,369 C206.25,367.5 204.95,358.95 203.5,350.05 C202.1,341.15 201.05,333.8 201.1,333.75 C201.25,333.6 207,334.45 224,337.25 C230.2,338.25 238.65,339.6 242.75,340.3 C246.9,340.95 250.8,341.6 251.5,341.75 C252.55,342 253.5,341.3 257.65,337.1 L262.6,332.15 L256.1,325.45 L249.6,318.75 L244.45,317.9 C241.6,317.4 232.85,316 225,314.7 C217.15,313.45 207.7,311.95 204,311.3 L197.25,310.2 L196.9,308 C196.5,305.8 191.85,276.5 191,271 C190.75,269.5 189.75,263.2 188.8,257 C187.1,246.4 181.4,210.5 180.5,204.5 C178.75,193.3 172.35,153.1 169,132.5 C167.4,122.35 160.5,78.3 160.2,76 L159.85,73.25 L147.45,60.5 C132.95,45.55 132,44.6 132,45.45 C132,45.8 132.55,49.4 133.25,53.45 C134.25,59.4 136.75,75.4 141.5,106.5 C141.75,108 142.15,110.7 142.45,112.5 C143.55,119.8 146.15,135.95 149.45,156.25 C153.1,178.65 157.65,207.55 159.5,220 C160.1,224 162.05,236.25 163.8,247.25 C165.55,258.25 167.2,268.7 167.45,270.5 C167.7,272.3 169.1,281.15 170.5,290.2 L173.1,306.65 L168.55,311.2 C166.05,313.7 164,316 164,316.25 C164,316.5 166.85,319.6 170.35,323.1 L176.7,329.45 L178.35,339.85 C179.25,345.55 180.2,351.6 180.45,353.25 C180.7,354.9 182.15,364.15 183.7,373.75 C185.2,383.4 187.3,396.55 188.3,403.05 L190.2,414.9 L204.7,417.25 C212.7,418.55 226,420.7 234.25,422 C242.5,423.35 252.4,424.9 256.25,425.5 C260.1,426.05 269.2,427.55 276.5,428.8 C283.8,430 297.75,432.25 307.5,433.75 C317.25,435.25 326.25,436.7 327.5,436.95 C328.75,437.2 329.95,437.4 330.25,437.45 C330.5,437.5 327.2,433.95 322.9,429.65 Z M271.5,430.05 C271.5,429.85 266.95,429 261.4,428.05 C255.8,427.15 241,424.75 228.5,422.7 C216,420.7 202.85,418.55 199.25,418 C195.7,417.45 192.05,416.85 191.2,416.75 C190.3,416.6 189.35,416.2 189.1,415.85 C188.8,415.55 188.15,412.1 187.55,408.25 C186.5,401.2 185.25,393.05 180.5,363.75 C179.05,354.95 177.3,343.85 176.55,339.1 L175.15,330.45 L173.1,328.35 L171.05,326.3 L172.55,330.55 C174.2,335.25 176.35,346.2 176.25,349.25 C176.2,350.35 175.95,352.6 175.75,354.25 C175.5,355.9 175.3,357.4 175.3,357.55 C175.25,357.7 174.7,358.65 174,359.6 C172.7,361.5 170.9,362.8 169.25,363.05 C167.95,363.2 164.5,362.5 163.25,361.85 C162.7,361.55 162.1,361.35 161.9,361.4 C161.65,361.45 161.5,361.25 161.5,360.95 C161.5,360.7 161.3,360.55 161.1,360.7 C160.85,360.85 160.3,360.55 159.85,360.1 C159.05,359.25 158.1,358.45 154.25,355.4 C152.3,353.85 156.25,358.05 170.85,373 C176.55,378.85 177.95,380.6 178.2,382 C178.35,382.95 178.8,385.9 179.2,388.5 C182.75,411.15 183,412.15 184.65,413.6 C185.55,414.4 186.5,415 186.85,415 C187.15,415 187.5,415.15 187.6,415.4 C188.3,417.05 200.9,422.5 204,422.5 C204.45,422.5 205,422.65 205.2,422.85 C205.55,423.25 206,423.3 209.65,423.75 C211,423.9 212.25,424.1 212.45,424.2 C212.8,424.45 221.25,425.45 225.5,425.75 C232.15,426.3 234.7,426.55 234.95,426.75 C235.15,426.85 236.65,427.05 238.25,427.25 C239.9,427.45 241.8,427.65 242.5,427.75 C243.2,427.85 245.35,428.1 247.25,428.25 C250.7,428.55 257.6,429.3 261.95,429.8 C263.2,429.9 264.25,430.1 264.3,430.15 C264.6,430.4 271.5,430.3 271.5,430.05 Z M94.5,409.75 C93.35,402.6 91.65,391.8 90.7,385.75 C89.7,379.7 88.75,373.5 88.5,372 C87.45,365.35 83.4,339.6 82.3,332.75 C78.6,310.1 78.05,306.3 78.15,306.15 C78.25,306.1 84.8,312.8 92.8,321.1 C100.75,329.4 112.55,341.75 119,348.5 C125.5,355.25 136.5,366.7 143.5,374 C156.5,387.55 161.25,392.5 174.2,406 L181.65,413.7 L181.3,411.5 C181.1,410.25 180.75,408 180.5,406.5 C180.25,405 179.3,398.7 178.3,392.55 L176.55,381.35 L172.4,377.05 C168.5,373 136.2,339.95 117,320.35 C112.2,315.45 108.2,311.25 108.1,311.05 C108,310.8 118.6,296.45 131.65,279.1 L155.35,247.55 L154.95,244.9 C151.35,222.05 149.55,210.75 149.2,208.9 C148.85,207.25 150.15,205.65 133.2,229 C99.2,275.95 92.95,284.55 90.5,287.9 L87.85,291.55 L80.9,284.65 C77.05,280.85 73.75,277.4 73.5,277 C73.25,276.55 71.8,267.65 70.25,257.25 C68.7,246.8 66.55,232.85 65.45,226.25 C63.05,211.45 59.25,187.45 56,166.25 C54.65,157.45 53.4,149.75 53.25,149.15 C53.05,148.2 52,149.1 45.6,155.65 C41.5,159.85 37,164.55 35.55,166.1 L32.9,168.95 L35.95,188.85 C37.65,199.8 39.6,212.45 40.3,217 C41,221.55 41.9,227.15 42.3,229.5 C43.75,237.95 51,284.9 51,286.05 C51,286.85 49.55,288.65 46.4,291.85 L41.75,296.5 L46.25,301.15 C55.25,310.35 55,310.05 55.5,313.3 C55.7,314.9 57.55,326.5 59.5,339 C61.45,351.5 63.3,363.1 63.55,364.75 C63.8,366.4 64.95,373.9 66.15,381.4 L68.3,395.05 L82.25,409.35 C89.9,417.2 96.3,423.4 96.35,423.15 C96.45,422.9 95.6,416.85 94.5,409.75 Z M74.25,403.5 C70.45,399.7 67.2,396.65 67.05,396.8 C66.9,396.95 67.1,397.25 67.5,397.5 C67.9,397.8 68.1,398 67.85,398 C67.35,398 68.85,400.3 70.5,402.15 C74,406.1 74.9,406.9 77.45,408.6 C79,409.6 80.45,410.45 80.75,410.45 C81,410.5 78.1,407.35 74.25,403.5 Z M170.6,404.75 C169.4,403.25 136.45,369 136.2,369 C136.1,369 136.15,369.35 136.3,369.75 C136.5,370.15 136.8,370.5 137.05,370.5 C137.3,370.5 137.5,370.7 137.5,371 C137.5,371.25 137.8,371.9 138.2,372.35 C142.65,377.8 145.5,381.65 145.5,382.25 C145.5,382.65 145.7,383 146,383 C146.25,383 147.05,383.85 147.7,384.9 C148.35,385.9 149.35,387.25 149.9,387.8 C150.5,388.4 150.8,389.05 150.6,389.3 C150.4,389.5 150.5,389.5 150.8,389.35 C151.15,389.15 151.8,389.6 152.25,390.3 C153.1,391.6 157.6,396.2 161,399.25 C162.8,400.85 164,401.65 166.15,402.6 C166.9,402.95 167.5,403.4 167.5,403.6 C167.5,403.8 167.8,404 168.15,404 C168.55,404 169.35,404.45 170,405 C171.55,406.35 171.75,406.25 170.6,404.75 Z M66.45,393.65 C66.2,392.3 65.55,388.2 65,384.5 C64.45,380.8 63.75,376.4 63.5,374.75 C63.25,373.1 62.45,368.25 61.8,364 C59.85,351.65 58.05,340.35 56.75,332.25 C56.1,328.15 55.05,321.55 54.5,317.7 L53.4,310.6 L49.95,307.2 L46.55,303.8 L47.05,305.8 C47.35,306.85 47.85,308.2 48.15,308.75 C48.45,309.3 48.75,310 48.8,310.3 C48.85,310.6 49.25,311.65 49.65,312.55 C51.95,317.55 54.2,325.8 54.7,331 C54.85,332.25 55.3,335.8 55.75,338.9 C56.15,342 56.4,344.75 56.25,345 C56.1,345.25 56.2,345.55 56.45,345.75 C56.7,345.9 56.95,346.4 56.95,346.9 C56.9,347.35 57.05,348.75 57.25,350 C57.45,351.25 57.65,352.95 57.75,353.75 C57.8,354.6 57.95,355.25 58,355.25 C58.05,355.25 58.2,355.9 58.3,356.7 C58.6,359.35 59.05,362.75 59.3,364 C59.4,364.7 59.55,366.05 59.55,367 C59.6,367.95 59.75,369 59.9,369.25 C60.1,369.55 60.25,370.3 60.3,371 C60.4,372.85 60.9,376.15 61.2,377 C61.35,377.4 61.55,378.65 61.7,379.75 C61.85,380.85 62.05,382.2 62.2,382.75 C63.95,389.5 64.65,391.8 65.55,393.6 C65.8,394.1 66,394.85 66,395.25 C66,395.65 66.2,396 66.45,396 C66.65,396 66.65,394.95 66.45,393.65 Z M129.5,361.8 C129.5,361.7 129.1,361.3 128.65,360.95 C127.85,360.3 127.8,360.35 128.45,361.15 C129.1,361.95 129.5,362.2 129.5,361.8 Z M122.5,354.35 C122.5,354.25 121.65,353.4 120.65,352.45 L118.75,350.75 L120.45,352.65 C122.1,354.35 122.5,354.75 122.5,354.35 Z M113,344.85 C113,344.75 112.5,344.25 111.9,343.7 L110.75,342.75 L111.7,343.9 C112.6,344.95 113,345.25 113,344.85 Z M258.15,324.65 C257.8,324.5 257.5,324.1 257.5,323.75 C257.5,322.95 252,317.3 251,317.1 C250.6,317 249.9,316.6 249.5,316.25 C248.5,315.35 239.45,312.8 233.75,311.8 C228.05,310.8 226.85,310.65 220.75,310.2 C213.6,309.7 213.35,309.7 212.25,309.3 C209.75,308.35 206.25,306.7 206.1,306.35 C206,306.15 205.75,306.1 205.55,306.2 C205.35,306.35 204.45,305.8 203.6,305 C202.7,304.2 202,303.7 202,303.9 C201.95,304.1 201.6,303.65 201.2,302.9 C200.8,302.1 200.3,301.5 200.05,301.5 C199.6,301.5 197,296 197,295 C197,294.6 196.9,294.45 196.8,294.55 C196.65,294.7 197,297.7 197.5,301.25 C198.05,304.85 198.5,308 198.5,308.25 C198.5,308.55 201.05,309.15 204.15,309.65 C207.2,310.15 215.15,311.45 221.75,312.5 C228.35,313.6 237.3,315 241.6,315.7 C245.9,316.4 249.85,317.15 250.35,317.45 C250.9,317.7 252.85,319.65 254.7,321.75 C256.6,323.8 258.25,325.4 258.45,325.2 C258.6,325 258.45,324.75 258.15,324.65 Z M123,323.8 C123,323.7 122.6,323.3 122.15,322.95 C121.35,322.3 121.3,322.35 121.95,323.15 C122.6,323.95 123,324.2 123,323.8 Z M119.5,319.15 C117.25,315.5 116.2,310.6 116.85,306.8 C117.25,304.3 118.4,301.15 119.85,298.4 C119.95,298.15 119.95,298 119.8,298 C119.65,298 117.35,300.85 114.75,304.35 L109.95,310.7 L115.35,316.1 C118.3,319.05 120.8,321.5 120.85,321.5 C120.9,321.5 120.3,320.45 119.5,319.15 Z M171,305.1 C171,303.9 170.3,299.3 169.5,295.25 C169.2,293.65 169.1,294.3 169,298.25 C168.95,301 168.85,304.5 168.7,306 L168.45,308.7 L169.75,307.5 C170.45,306.85 171,305.75 171,305.1 Z M121.2,296.7 C121.45,296 121.4,295.95 120.75,296.5 C119.9,297.2 119.8,297.5 120.45,297.5 C120.7,297.5 121.05,297.15 121.2,296.7 Z M102.05,269.15 C102.7,268.35 102.65,268.3 101.9,268.95 C101.4,269.3 101,269.7 101,269.8 C101,270.2 101.4,269.95 102.05,269.15 Z M163.75,258.2 C163.05,253.85 160.9,240.15 158.95,227.75 C157,215.4 155.1,203.55 154.75,201.5 L154.1,197.75 L154,200.75 C153.85,205.75 153.25,209.25 152.25,210.8 C151.7,211.6 151.65,212.6 152,214.8 C152.8,220.1 153.4,224.1 155.2,235.55 C156.2,241.8 157,247.2 157,247.55 C157,247.95 154.95,250.95 152.45,254.25 C149.95,257.55 147.7,260.7 147.4,261.25 C146.8,262.35 146.75,262.4 150.45,259.1 C152.35,257.45 155.7,256.35 157.7,256.7 C160,257.15 162.1,259.7 163.6,263.9 C164.2,265.65 164.8,266.9 164.85,266.65 C164.95,266.4 164.45,262.6 163.75,258.2 Z M72.85,259.9 C72.7,259.5 72.55,259.65 72.55,260.2 C72.5,260.75 72.65,261.05 72.8,260.85 C72.95,260.7 73,260.25 72.85,259.9 Z M72.35,257.4 C72.2,257 72.05,257.15 72.05,257.7 C72,258.25 72.15,258.55 72.3,258.35 C72.45,258.2 72.5,257.75 72.35,257.4 Z M71.35,250.4 C71.2,250.05 71.1,250.3 71.1,251 C71.1,251.7 71.2,251.95 71.35,251.65 C71.45,251.3 71.45,250.7 71.35,250.4 Z M71.05,247.45 C71.1,245.7 70.55,236.1 70.25,233.75 C70.1,232.65 69.9,230.85 69.75,229.75 C69.6,228.65 69.4,226.95 69.25,226 C69.1,225.05 68.9,223.15 68.75,221.75 C68.6,220.4 68.25,218.1 67.95,216.75 C67.7,215.35 67.4,212.05 67.25,209.35 C67.15,206.65 66.95,203.65 66.8,202.6 C66.65,201.6 66.3,198.55 66,195.9 C65.75,193.2 65.4,190.3 65.25,189.4 C64.6,184.5 63.85,179.65 63.7,178.75 C63.6,178.2 63.25,176.5 62.95,175 C62.7,173.5 62.35,171.7 62.2,171 C62,169.75 61.65,168.85 59.25,162.9 C57.85,159.35 56.05,157.05 56.65,159.5 C56.8,160.2 57.1,161.9 57.25,163.25 C57.6,165.65 63.25,201.85 66.8,224 C67.75,229.9 69,237.95 69.6,241.85 C70.25,245.75 70.8,248.9 70.85,248.8 C70.95,248.75 71,248.15 71.05,247.45 Z M148.05,158.65 C145,139.55 143.95,132.95 143.25,128.25 C141.55,117.05 135.4,77.95 133.95,69.1 C132.8,62.35 132.3,61.5 132,66.15 C131.55,73.5 132.1,80.15 134,91.25 C134.5,94.3 135.1,97.75 135.3,99 C135.45,100.25 135.7,101.7 135.8,102.25 C135.9,103.05 137.3,111.15 138.2,116.5 C138.35,117.2 138.45,117.75 138.5,117.75 C138.65,117.75 138.85,118.85 140.75,128.5 C141.15,130.6 141.3,131.15 141.9,133.25 C142.45,135.35 143.65,140 143.8,140.65 C143.85,140.85 143.95,141.05 144,141.15 C144.05,141.2 144.2,141.8 144.25,142.5 C144.5,145 145.05,148.25 145.45,150 C145.7,150.95 146.05,152.7 146.2,153.85 C146.55,156.45 148.15,162.55 148.4,162.25 C148.5,162.15 148.35,160.55 148.05,158.65 Z M172.3,135.9 C172.15,133.35 171.7,129.25 171.3,126.75 C170.85,124.3 170.4,120.95 170.25,119.3 C170.1,117.7 169.9,116.25 169.8,116.05 C169.7,115.9 169.45,113.15 169.3,110 C169,104.5 168.7,101 168.2,97.75 C168.1,96.95 167.9,95 167.75,93.5 C167.3,88.2 165.1,77.8 164.1,76.25 C163.9,76 163.75,75.65 163.75,75.5 C163.7,75.35 163,73.9 162.15,72.25 C161.3,70.6 160.2,68.45 159.7,67.5 C158.65,65.4 151.1,57.9 150.45,58.3 C150.2,58.45 150,58.35 150,58.05 C150,57.6 149.65,57.45 146.9,56.7 C146.2,56.5 148.9,59.55 153.65,64.35 C157.95,68.75 161.5,72.6 161.5,72.9 C161.5,73.7 163.55,86.95 166.75,107 C171.6,137.15 172.15,140.5 172.35,140.5 C172.5,140.5 172.45,138.4 172.3,135.9 Z" id="Shape"></path>
                    <path d="M261.15,395.5 C238,391.7 218.75,388.5 218.4,388.35 C217.7,388.1 214.2,367.65 214.75,367.1 C215,366.85 277.95,376.8 280.3,377.45 C280.85,377.6 286.8,383.3 293.45,390.15 C302.95,399.75 305.35,402.5 304.45,402.45 C303.8,402.4 284.3,399.3 261.15,395.5 Z" id="Shape"></path>
                    <path d="M48,382.35 L36.2,370.25 L30.3,332.75 C27.05,312.15 24.1,293.45 23.75,291.25 L23.1,287.3 L25.4,289.75 C26.65,291.15 32.05,296.8 37.4,302.4 L47.15,312.55 L53.55,353.15 C57.1,375.5 59.95,393.9 59.85,394.1 C59.8,394.3 54.45,389 48,382.35 Z" id="Shape"></path>
                    <path d="M225.75,391.5 C225.6,391.25 225.7,391 225.95,391 C226.25,391 226.5,391.25 226.5,391.5 C226.5,391.8 226.4,392 226.3,392 C226.15,392 225.9,391.8 225.75,391.5 Z" id="Shape"></path>
                    <path d="M214.1,378.25 C213.8,377.55 213.75,377 214,377 C214.45,377 215.25,378.95 214.9,379.3 C214.75,379.4 214.4,378.95 214.1,378.25 Z" id="Shape"></path>
                    <path d="M213.3,375.65 C211.9,370.95 209.9,359.35 209.85,355.75 C209.8,351.9 210.5,350.75 210.85,354 C211.05,355.65 211.05,355.55 212.7,365.25 C214.5,376.15 214.55,376.5 214.05,376.5 C213.8,376.5 213.45,376.1 213.3,375.65 Z" id="Shape"></path>
                    <path d="M226.25,306.85 C214.45,304.9 204.65,303.1 204.45,302.9 C204.1,302.4 200.85,281.95 201.1,281.7 C201.2,281.6 206.8,282.4 213.5,283.5 L225.75,285.45 L230,289.95 C232.35,292.45 237.7,298.05 241.95,302.5 C246.8,307.55 249.25,310.5 248.7,310.45 C248.15,310.4 238.1,308.8 226.25,306.85 Z" id="Shape"></path>
                    <path d="M24.5,287.4 C21.1,283.75 15.6,278 12.35,274.65 L6.35,268.55 L7.9,266.65 C8.75,265.6 11.25,262.95 13.5,260.75 L17.6,256.75 L28.55,268 C34.6,274.2 40.15,280 40.85,280.9 L42.15,282.55 L36.45,288.3 L30.7,294.05 L24.5,287.4 Z" id="Shape"></path>
                    <path d="M29.95,268 C23.5,261.4 18.2,255.8 18.15,255.6 C17.75,254.4 -7.38159533e-14,140.2 0.1,139.7 C0.3,138.8 23.7,163.35 23.9,164.65 C24,165.25 28.1,191.4 33,222.75 C37.95,254.05 41.9,279.8 41.8,279.85 C41.7,279.95 36.35,274.65 29.95,268 Z" id="Shape"></path>
                    <path d="M82.9,276.4 L81.15,274.25 L78.05,254.65 C76.4,243.9 75,234.7 75,234.25 C75,233.8 77.05,230.55 79.6,227.1 C110.5,184.4 121.25,169.6 121.95,168.9 C122.7,168.05 123.5,168.8 134.75,180.6 C141.35,187.5 146.8,193.3 146.9,193.5 C147.1,194 85.9,278.1 85.2,278.35 C84.9,278.45 83.85,277.55 82.9,276.4 Z" id="Shape"></path>
                    <path d="M35.3,228.2 C34.9,227.15 34.9,226.25 35.35,226.7 C35.75,227.05 36.1,229 35.8,229 C35.7,229 35.45,228.65 35.3,228.2 Z" id="Shape"></path>
                    <path d="M34.75,225 C34.55,224.4 34.5,223.8 34.65,223.65 C34.8,223.55 35.05,223.9 35.25,224.5 C35.45,225.1 35.5,225.7 35.35,225.85 C35.2,225.95 34.95,225.6 34.75,225 Z" id="Shape"></path>
                    <path d="M34.2,221.75 C34.05,221.35 34,220.75 34.1,220.4 C34.25,220.05 34.45,220.35 34.6,221.15 C34.9,222.6 34.65,222.95 34.2,221.75 Z" id="Shape"></path>
                    <path d="M33.8,218.75 C33.65,218.3 33.5,217.65 33.55,217.35 C33.55,217 33.8,217.3 34.05,217.95 C34.3,218.6 34.45,219.25 34.3,219.35 C34.2,219.45 34,219.2 33.8,218.75 Z" id="Shape"></path>
                    <path d="M33.1,214.5 C33.1,213.8 33.2048858,213.55 33.3622145,213.9 C33.4671003,214.2 33.4671003,214.8 33.3622145,215.15 C33.2048858,215.45 33.1,215.2 33.1,214.5 Z" id="Shape"></path>
                    <path d="M32.85,212.65 C32.65,212.5 32.5,211.9 32.5,211.35 C32.5,210.1 33.15,210.65 33.35,212 C33.5,213.05 33.4,213.2 32.85,212.65 Z" id="Shape"></path>
                    <path d="M32.35,209.15 C32.15,209 32,208.5 32,208.05 C32.05,207.4 32.15,207.4 32.55,208.15 C33.1,209.1 32.95,209.8 32.35,209.15 Z" id="Shape"></path>
                    <path d="M31.85,206.15 C31.65,206 31.5,205.35 31.55,204.8 C31.55,203.85 31.6,203.85 32.05,204.95 C32.55,206.15 32.45,206.75 31.85,206.15 Z" id="Shape"></path>
                    <path d="M31.15,202.25 C31,201.8 31,201.35 31.1,201.2 C31.25,201.05 31.5,201.4 31.65,202 C31.95,203.15 31.6,203.35 31.15,202.25 Z" id="Shape"></path>
                    <path d="M30.85,199.65 C30.35,199.2 30.4,198 30.9,198 C31.1,198 31.3,198.45 31.3,199 C31.3,200.15 31.3,200.1 30.85,199.65 Z" id="Shape"></path>
                    <path d="M30.35,196.65 C30.15,196.5 30,195.85 30.05,195.3 C30.05,194.35 30.1,194.35 30.55,195.45 C31.05,196.65 30.95,197.25 30.35,196.65 Z" id="Shape"></path>
                    <path d="M29.55,192.2 C29.55,191.65 29.7,191.5 29.85,191.9 C30,192.25 29.95,192.7 29.8,192.85 C29.65,193.05 29.5,192.75 29.55,192.2 Z" id="Shape"></path>
                    <path d="M134.9,179.5 C128.5,172.85 123.1,166.95 122.85,166.35 C122.65,165.75 116.75,128.8 109.75,84.25 C102.7,39.7 96.85,2.45 96.7,1.5 C96.4,-0.15 96.8,0.15 103.5,6.75 C107.4,10.6 112.8,16.15 115.5,19.05 L120.45,24.35 L125.75,58.05 C128.65,76.6 134.55,114.2 138.9,141.65 C143.25,169.05 146.75,191.5 146.7,191.5 C146.65,191.5 141.35,186.1 134.9,179.5 Z" id="Shape"></path>
                    <path d="M29,189.25 C29,188.85 29.1,188.5 29.2,188.5 C29.3,188.5 29.5,188.85 29.7,189.25 C29.85,189.65 29.75,190 29.5,190 C29.2,190 29,189.65 29,189.25 Z" id="Shape"></path>
                    <path d="M28.85,187.15 C28.65,187 28.5,186.35 28.55,185.8 C28.55,184.85 28.6,184.85 29.05,185.95 C29.55,187.15 29.45,187.75 28.85,187.15 Z" id="Shape"></path>
                    <path d="M12.35,150.4 L0.1,137.75 L4.55,133 C7,130.4 14.35,122.8 20.85,116.1 L32.75,103.95 L44.75,116.55 C51.35,123.45 56.75,129.4 56.75,129.75 C56.75,130.35 25.6,162.85 24.95,162.95 C24.75,163 19.1,157.3 12.35,150.4 Z" id="Shape"></path>
                </g>
            </g>
        </g>
    </g>
</svg>